# xmcd
#
# Track frame offsets: 
#        150
#        15067
#        24907
#        35345
#        49920
#        61715
#        73612
#        86762
#        100225
#        110957
#        123250
#        134435
#        147960
#        160177
#        172567
#
# Disc length: 2464 seconds
#
# Revision: 0
# Processed by: cddbd v1.4PL0 Copyright (c) Steve Scherf et al.
# Submitted via: ExactAudioCopy v0.95a3
#
DISCID=ba099e0f
DTITLE=Muddy Waters - The Stuff You Gotta Watch
DYEAR=1900
DGENRE=
TTITLE0=Iodine In My Coffee
TTITLE1=Mean Red Spider
TTITLE2=Diamonds At Your Feet
TTITLE3=Baby Please Don't Go
TTITLE4=Sittin' Here Drinkin'
TTITLE5=The Stuff You Gotta Watch
TTITLE6=Close To You
TTITLE7=You're Gonna Need My Help
TTITLE8=She's Alright
TTITLE9=So Glad I'm Living
TTITLE10=I Can't Call Her Sugar
TTITLE11=Sad Letter
TTITLE12=I Can't Be Satisfied
TTITLE13=Walkin' Thru The Park
TTITLE14=Trainfare Blues
EXTD=
EXTT0=
EXTT1=
EXTT2=
EXTT3=
EXTT4=
EXTT5=
EXTT6=
EXTT7=
EXTT8=
EXTT9=
EXTT10=
EXTT11=
EXTT12=
EXTT13=
EXTT14=
PLAYORDER=
